HIERARCHY
ROOT Hips
{
	OFFSET 0.00000 0.00000 0.00000
	CHANNELS 6 Xposition Yposition Zposition Yrotation Zrotation Xrotation 
	JOINT Lumbar
	{
		OFFSET 0 0 0
		CHANNELS 3 Zrotation Xrotation Yrotation
		JOINT Neck
		{
			OFFSET 0.00 0.2701 0.00
			CHANNELS 3 Zrotation Xrotation Yrotation
			End Site
			{
				OFFSET 0.00 0.1379 0.00
			}
		}
		JOINT RightShoulder
		{
			OFFSET 0.0119 0.2289 0.1181
			CHANNELS 3 Zrotation Xrotation Yrotation
			JOINT RightElbow
			{
				OFFSET 0.00 -0.1475 0.00
				CHANNELS 2 Zrotation Yrotation
				JOINT RightWrist
				{
					OFFSET 0.00 -0.1605 0.00
					CHANNELS 2 Zrotation Xrotation
					End Site
					{
						OFFSET 0.0040 -0.1068 0.0006
					}
				}
			}
		}
		JOINT LeftShoulder
		{
			OFFSET 0.0119 0.2289 -0.1181
			CHANNELS 3 Zrotation Xrotation Yrotation
			JOINT LeftElbow
			{
				OFFSET 0.00 -0.1475 0.00
				CHANNELS 2 Zrotation Yrotation
				JOINT LeftWrist
				{
					OFFSET 0.00 -0.1605 0.00
					CHANNELS 2 Zrotation Xrotation
					End Site
					{
						OFFSET 0.0040 -0.1068 -0.0006
					}
				}
			}
		}
	}
	JOINT RightHip
	{
		OFFSET 0.0316 -0.0424 0.0458
		CHANNELS 3 Zrotation Xrotation Yrotation
		JOINT RightKnee
		{
			OFFSET 0.00 -0.2438 0.00
			CHANNELS 1 Zrotation
			JOINT RightAnkle
			{
				OFFSET 0.00 -0.2449 0.00
				CHANNELS 3 Zrotation Xrotation Yrotation
				End Site
				{
					OFFSET 0.1237 -0.0542 0.0051
				}
			}
		}
	}
	JOINT LeftHip
	{
		OFFSET 0.0316 -0.0424 -0.0458
		CHANNELS 3 Zrotation Xrotation Yrotation
		JOINT LeftKnee
		{
			OFFSET 0.00 -0.2438 0.00
			CHANNELS 1 Zrotation
			JOINT LeftAnkle
			{
				OFFSET 0.00 -0.2449 0.00
				CHANNELS 3 Zrotation Xrotation Yrotation
				End Site
				{
					OFFSET 0.1237 -0.0542 -0.0051
				}
			}
		}
	}
}
MOTION
Frames: 28
Frame Time: 0.02
0.37568 -0.23826 0.01275 179.29211 7.01372 -2.94202 17.25529 10.32111 -9.92941 -14.60761 -27.43504 -2.1197 36.04445 12.88757 55.6341 89.56741 75.03668 71.41301 -4.41723 0.84727 9.27846 -55.62831 105.64495 -76.14954 62.02932 2.5327 75.07631 0.25489 -22.81981 -74.89988 -14.55176 -0.32977 -2.72617 75.74281 3.47173 19.981 -59.16203 -18.9424 -0.40755 2.54025
0.37469 -0.23761 0.01271 179.11947 6.49601 -2.92356 17.14774 10.34096 -9.69087 -14.00844 -27.01153 -2.11971 36.04719 13.29094 55.63428 89.37786 74.58884 69.11316 -4.54017 0.28653 9.08016 -55.58772 105.20024 -76.90065 60.74028 2.55807 75.38074 0.19261 -22.9079 -75.64352 -14.22535 -0.30786 -2.70362 75.92742 3.63851 20.05452 -59.96422 -18.91744 -0.40632 2.54002
0.37369 -0.23696 0.01259 178.89257 5.96497 -2.88561 17.01667 10.3746 -9.48094 -13.43184 -26.72191 -2.11971 35.60763 13.91487 55.6341 88.76411 74.08224 66.45925 -4.64876 -0.59053 8.68713 -55.52985 104.5702 -77.63104 58.70174 2.73596 75.76231 0.15361 -22.99303 -76.53457 -13.85864 -0.2849 -2.68017 76.10256 3.7757 19.97086 -60.60819 -18.85501 -0.37262 2.55504
0.37269 -0.23631 0.01252 178.69285 5.44265 -2.85493 16.89255 10.39924 -9.25945 -12.84962 -26.36755 -2.11971 35.38804 14.41861 55.63383 88.31501 73.53234 63.93272 -4.76495 -1.2771 8.41105 -55.47482 103.98435 -78.31258 56.9962 2.84674 76.10596 0.10543 -23.07742 -77.33749 -13.51813 -0.26415 -2.65819 76.2782 3.92577 19.96628 -61.3104 -18.80657 -0.3547 2.56245
0.37172 -0.23563 0.01241 178.48225 4.90656 -2.83022 16.78674 10.43488 -9.03003 -12.24737 -26.02404 -2.11971 35.08791 15.00482 55.63513 87.99734 73.27999 61.53549 -4.87836 -2.15603 8.01829 -55.44416 103.56719 -79.238 55.33603 2.94504 76.46176 0.04886 -23.17345 -78.23125 -13.14303 -0.23706 -2.63215 76.46853 4.08015 19.9338 -62.06568 -18.77023 -0.33165 2.57313
0.3707 -0.23501 0.01235 178.28145 4.39922 -2.789 16.63311 10.45035 -8.82402 -11.69243 -25.68918 -2.11971 34.85278 15.46998 55.63246 87.29574 72.39629 58.79556 -4.99515 -2.71062 7.8186 -55.35458 102.7529 -79.65976 53.39871 3.10488 76.80798 0.01604 -23.2443 -78.97084 -12.83021 -0.22263 -2.61422 76.62532 4.21789 19.92005 -62.67525 -18.70007 -0.31167 2.58058
0.36956 -0.23453 0.01245 178.12218 3.94545 -2.70354 16.39294 10.4162 -8.68364 -11.26207 -25.3803 -2.11971 34.87815 15.57637 55.62404 85.69147 69.74348 55.12213 -5.10444 -2.29883 8.22991 -55.14405 100.90745 -78.5844 50.87537 3.42232 77.14189 0.04563 -23.23535 -79.24039 -12.70787 -0.2424 -2.6187 76.70743 4.31544 20.00088 -62.91293 -18.54542 -0.31075 2.57394
0.36838 -0.23411 0.0126 177.97468 3.52575 -2.60288 16.09914 10.35994 -8.56498 -10.87886 -25.07127 -2.11971 34.98819 15.54886 55.61069 83.70295 66.46342 51.13107 -5.22114 -1.54804 8.83685 -54.86981 98.66351 -77.01786 48.09883 3.79346 77.45857 0.0982 -23.20239 -79.3508 -12.64828 -0.27495 -2.63134 76.75411 4.39709 20.10446 -63.01123 -18.35799 -0.31374 2.56371
0.36723 -0.23367 0.01272 177.8208 3.11045 -2.51143 15.80278 10.30752 -8.43112 -10.47424 -24.73944 -2.11971 35.07808 15.56347 55.59623 81.85589 63.4968 47.33397 -5.34692 -0.9505 9.33386 -54.59755 96.59148 -75.75417 45.43765 4.12321 77.7609 0.13901 -23.18742 -79.53928 -12.55462 -0.30217 -2.64034 76.80645 4.48692 20.19438 -63.17966 -18.18611 -0.31334 2.55603
0.36606 -0.23319 0.01286 177.66856 2.61377 -2.40937 15.61541 10.28083 -8.31951 -10.06962 -24.50451 -2.11971 35.07852 15.66315 55.59586 80.14002 60.41088 43.31297 -5.41864 -0.37243 9.9114 -54.43031 94.55918 -74.17313 42.74512 4.52606 78.15623 0.18626 -23.14365 -79.70909 -12.48302 -0.32744 -2.64909 76.90027 4.57243 20.29356 -63.31505 -18.01097 -0.31848 2.5451
0.36491 -0.23279 0.01297 177.51745 2.29106 -2.32633 15.19348 10.19633 -8.16786 -9.6768 -24.07119 -2.11971 35.28694 15.55301 55.56501 78.05785 57.42213 39.69004 -5.60625 0.3372 10.37203 -54.03977 92.3426 -73.11231 40.07277 4.79227 78.35689 0.2251 -23.15275 -79.87756 -12.38081 -0.35974 -2.66026 76.9022 4.66266 20.38007 -63.48674 -17.83431 -0.31359 2.53975
0.36381 -0.23262 0.01297 177.35787 2.47309 -2.29712 14.09469 9.94712 -7.88714 -9.29719 -23.04473 -2.11972 36.08615 14.8778 55.44854 75.12502 54.88656 37.22434 -6.09949 1.27277 10.44666 -52.95892 89.79645 -73.81705 37.47578 4.62658 77.98847 0.23658 -23.32599 -80.08484 -12.18022 -0.40882 -2.67639 76.63559 4.7773 20.43361 -63.80667 -17.67071 -0.27888 2.55184
0.36272 -0.23253 0.01294 177.20088 2.82306 -2.28803 12.76949 9.6423 -7.56748 -8.92906 -21.82613 -2.11972 37.08621 13.99834 55.30041 71.82865 52.46835 35.1755 -6.71084 2.33984 10.40044 -51.67186 87.0654 -75.02355 34.91959 4.32887 77.43108 0.23845 -23.55101 -80.29483 -11.9468 -0.46447 -2.69463 76.28236 4.89595 20.47303 -64.16627 -17.50537 -0.23425 2.56945
0.36164 -0.23238 0.01292 177.04876 3.07465 -2.27147 11.57606 9.3699 -7.27448 -8.56088 -20.72495 -2.11973 37.97321 13.2235 55.17065 68.65425 49.97168 32.95079 -7.27726 3.38515 10.42094 -50.53839 84.36483 -75.86319 32.37611 4.11756 76.98319 0.2436 -23.74419 -80.50051 -11.72739 -0.51679 -2.71169 75.98398 5.00807 20.51465 -64.49925 -17.33475 -0.19524 2.58365
0.36052 -0.23229 0.0129 176.87166 3.42019 -2.24759 10.25971 9.06697 -6.94541 -8.17306 -19.49799 -2.11974 38.95823 12.39459 55.03074 65.63972 47.54483 30.65826 -7.80973 4.28551 10.39952 -49.15171 81.87161 -77.27103 29.69097 3.79531 76.43482 0.25403 -23.9714 -80.71381 -11.51317 -0.57094 -2.72992 75.61818 5.13968 20.57454 -64.86307 -17.18786 -0.15204 2.6013
0.35948 -0.23212 0.01288 176.74684 3.60994 -2.24358 9.14525 8.81418 -6.68072 -7.82761 -18.48585 -2.11975 39.78149 11.63117 54.89593 62.22226 45.02656 28.60915 -8.43744 5.50981 10.43271 -48.24204 78.91374 -77.62192 27.31448 3.67389 76.05131 0.25106 -24.1406 -80.91387 -11.28053 -0.62276 -2.74618 75.37371 5.2316 20.59306 -65.1745 -16.99247 -0.11468 2.6134
0.35866 -0.23169 0.01285 176.76776 3.32421 -2.2927 8.65345 8.71813 -6.61375 -7.60224 -18.12721 -2.11975 40.14606 11.10221 54.85778 57.68743 42.07886 27.14215 -9.32835 7.63571 10.65829 -48.7187 74.67165 -74.9314 25.7777 4.12232 76.16724 0.21163 -24.13499 -81.07744 -10.99663 -0.6657 -2.75563 75.47703 5.21554 20.4986 -65.32713 -16.65642 -0.10011 2.60623
0.35792 -0.23119 0.01282 176.8408 2.87646 -2.36061 8.3712 8.67373 -6.61099 -7.41813 -17.98903 -2.11975 40.33404 10.64638 54.8128 52.78008 39.06759 25.90561 -10.30531 10.07319 10.93986 -49.67853 69.98095 -71.16724 24.5514 4.77965 76.45598 0.15922 -24.06991 -81.22794 -10.69676 -0.70615 -2.76312 75.70713 5.15918 20.36365 -65.42696 -16.27345 -0.09107 2.59372
0.35714 -0.23073 0.0128 176.88855 2.50557 -2.41787 7.98672 8.60269 -6.57174 -7.21055 -17.74105 -2.11976 40.57761 10.15509 54.7208 48.10551 36.18377 24.55675 -11.22407 12.34176 11.18684 -50.40629 65.52566 -67.89091 23.18677 5.35308 76.66711 0.11386 -24.03319 -81.38513 -10.4092 -0.74829 -2.77201 75.88501 5.11941 20.24816 -65.55491 -15.91642 -0.0765 2.58541
0.35636 -0.23023 0.01276 176.94303 2.12719 -2.48468 7.62336 8.54295 -6.56147 -7.02186 -17.52644 -2.11976 40.93057 9.66521 54.83569 43.14608 32.88083 23.25232 -12.22865 14.7341 11.46806 -51.18295 60.9226 -64.61204 21.81411 5.8781 76.86806 0.06352 -23.99176 -81.54042 -10.09853 -0.78841 -2.77886 76.03741 5.08625 20.12632 -65.66779 -15.5385 -0.07378 2.57001
0.35561 -0.22979 0.01275 176.99603 1.72343 -2.53588 7.26934 8.4728 -6.50725 -6.8053 -17.2978 -2.11977 41.01335 9.19342 54.523 38.70119 30.4427 21.90713 -13.07204 16.93628 11.69318 -51.97093 56.53318 -61.10224 20.52837 6.55181 77.1333 0.02037 -23.94644 -81.69497 -9.83347 -0.83193 -2.78943 76.2737 5.03068 20.01002 -65.7977 -15.1946 -0.0485 2.56777
0.35495 -0.22957 0.0128 177.03053 1.29071 -2.5386 6.88608 8.36039 -6.31059 -6.48599 -16.97265 -2.11977 40.37295 8.74678 52.99204 35.73018 30.34393 20.36961 -13.45975 18.57494 11.7463 -52.70888 52.76105 -57.0031 19.43398 7.61412 77.53885 0.0021 -23.89487 -81.86474 -9.6909 -0.88636 -2.811 76.71475 4.91454 19.90415 -65.9988 -14.94234 0.04613 2.60551
0.35432 -0.22942 0.01288 177.062 0.83683 -2.52503 6.50686 8.23619 -6.06875 -6.14018 -16.62774 -2.11978 39.46962 8.31844 51.03864 33.29955 31.13346 18.78472 -13.67969 20.00344 11.74202 -53.43506 49.23644 -52.74873 18.41154 8.81326 78.00339 -0.00873 -23.84273 -82.03179 -9.59626 -0.94405 -2.83632 77.23556 4.77871 19.80804 -66.21652 -14.72846 0.16258 2.65623
0.35367 -0.22922 0.01294 177.096 0.39088 -2.5193 6.12935 8.1182 -5.85122 -5.81658 -16.29498 -2.11978 38.69887 7.8869 49.30434 30.6475 31.55247 17.23564 -13.96906 21.50298 11.76718 -54.14426 45.65271 -48.70023 17.33753 9.93236 78.43829 -0.02423 -23.79759 -82.19061 -9.4847 -0.99965 -2.85978 77.71752 4.65766 19.71729 -66.41909 -14.50618 0.26519 2.69941
0.35304 -0.22907 0.01302 177.12714 -0.05324 -2.5123 5.74391 7.99829 -5.61966 -5.45106 -15.95522 -2.11979 37.86643 7.43496 47.45466 27.87732 31.81166 15.63737 -14.29046 23.11784 11.78108 -54.96708 41.82516 -44.03269 16.35222 11.13742 78.89012 -0.035 -23.72327 -82.38812 -9.35222 -1.05788 -2.88388 78.21464 4.51107 19.58396 -66.65209 -14.2444 0.38398 2.74926
0.35238 -0.22885 0.01307 177.16261 -0.50443 -2.50393 5.37343 7.87904 -5.40614 -5.16657 -15.62395 -2.11979 37.1028 7.03046 45.74584 25.49004 32.63757 14.12373 -14.50392 24.43718 11.80279 -55.5409 38.57353 -40.64485 15.1975 12.189 79.31965 -0.05337 -23.70871 -82.50558 -9.27467 -1.11127 -2.90747 78.69774 4.41289 19.54192 -66.82614 -14.0742 0.47457 2.78847
0.35165 -0.22842 0.01305 177.21234 -0.96656 -2.49476 5.04095 7.7631 -5.25004 -5.10763 -15.30771 -2.1198 36.59031 6.73932 44.52629 24.00108 34.61308 12.88613 -14.46227 25.00112 11.87132 -55.45684 36.82619 -40.71465 13.53757 12.81928 79.66225 -0.097 -23.87425 -82.39403 -9.33932 -1.15202 -2.92959 79.1199 4.45885 19.75153 -66.83507 -14.15147 0.47994 2.79429
0.3509 -0.22792 0.01301 177.26584 -1.43491 -2.48485 4.72284 7.64824 -5.11401 -5.132 -15.00206 -2.1198 36.15783 6.49734 43.46598 22.8865 37.15842 11.7299 -14.31741 25.27142 11.94748 -55.11596 35.65736 -42.09984 11.70794 13.28322 79.98141 -0.14798 -24.09776 -82.2036 -9.45719 -1.18752 -2.95092 79.52511 4.55335 20.05228 -66.78405 -14.31907 0.45657 2.78914
